<mxfile host="app.diagrams.net" modified="2023-04-18T23:02:18.541Z" agent="Mozilla/5.0 (Windows NT 10.0; Win64; x64; rv:109.0) Gecko/20100101 Firefox/112.0" etag="_N8wQJHURdRHYel6OYxE" version="21.1.8">
  <diagram id="C5RBs43oDa-KdzZeNtuy" name="Page-1">
    <mxGraphModel dx="2261" dy="782" grid="1" gridSize="10" guides="1" tooltips="1" connect="1" arrows="1" fold="1" page="1" pageScale="1" pageWidth="827" pageHeight="1169" math="0" shadow="0">
      <root>
        <mxCell id="WIyWlLk6GJQsqaUBKTNV-0" />
        <mxCell id="WIyWlLk6GJQsqaUBKTNV-1" parent="WIyWlLk6GJQsqaUBKTNV-0" />
        <mxCell id="zkfFHV4jXpPFQw0GAbJ--0" value="Model" style="swimlane;fontStyle=2;align=center;verticalAlign=top;childLayout=stackLayout;horizontal=1;startSize=26;horizontalStack=0;resizeParent=1;resizeLast=0;collapsible=1;marginBottom=0;rounded=0;shadow=0;strokeWidth=1;fillColor=#e1d5e7;strokeColor=#9673a6;" parent="WIyWlLk6GJQsqaUBKTNV-1" vertex="1">
          <mxGeometry x="420" y="40" width="300" height="390" as="geometry">
            <mxRectangle x="230" y="140" width="160" height="26" as="alternateBounds" />
          </mxGeometry>
        </mxCell>
        <mxCell id="zkfFHV4jXpPFQw0GAbJ--1" value="    positionAttributeID: GLint;&#xa;    normalAttributeID: GLint;&#xa;    positionBuffer: WebGLBuffer;&#xa;    normalBuffer: WebGLBuffer;&#xa;    indexBuffer: WebGLBuffer;&#xa;    numVertices: GLint;&#xa;    numIndices: GLint;&#xa;    gl: WebGLRenderingContext;&#xa;    drawmode: number;&#xa;" style="text;align=left;verticalAlign=top;spacingLeft=4;spacingRight=4;overflow=hidden;rotatable=0;points=[[0,0.5],[1,0.5]];portConstraint=eastwest;" parent="zkfFHV4jXpPFQw0GAbJ--0" vertex="1">
          <mxGeometry y="26" width="300" height="134" as="geometry" />
        </mxCell>
        <mxCell id="zkfFHV4jXpPFQw0GAbJ--4" value="" style="line;html=1;strokeWidth=1;align=left;verticalAlign=middle;spacingTop=-1;spacingLeft=3;spacingRight=3;rotatable=1;labelPosition=right;points=[];portConstraint=eastwest;movable=1;resizable=1;deletable=1;editable=1;connectable=1;" parent="zkfFHV4jXpPFQw0GAbJ--0" vertex="1">
          <mxGeometry y="160" width="300" height="8" as="geometry" />
        </mxCell>
        <mxCell id="ddMBwT2aPCV6fHb5aI7i-5" value="Constructor(AttributeID, drawmode)" style="text;align=left;verticalAlign=top;spacingLeft=4;spacingRight=4;overflow=hidden;rotatable=0;points=[[0,0.5],[1,0.5]];portConstraint=eastwest;rounded=0;shadow=0;html=0;" parent="zkfFHV4jXpPFQw0GAbJ--0" vertex="1">
          <mxGeometry y="168" width="300" height="26" as="geometry" />
        </mxCell>
        <mxCell id="ddMBwT2aPCV6fHb5aI7i-6" value="public init(vertexData, indexData, normalData, gl)" style="text;align=left;verticalAlign=top;spacingLeft=4;spacingRight=4;overflow=hidden;rotatable=0;points=[[0,0.5],[1,0.5]];portConstraint=eastwest;rounded=0;shadow=0;html=0;" parent="zkfFHV4jXpPFQw0GAbJ--0" vertex="1">
          <mxGeometry y="194" width="300" height="26" as="geometry" />
        </mxCell>
        <mxCell id="ddMBwT2aPCV6fHb5aI7i-7" value="public render(vertexData, indexData, normalData, gl)" style="text;align=left;verticalAlign=top;spacingLeft=4;spacingRight=4;overflow=hidden;rotatable=0;points=[[0,0.5],[1,0.5]];portConstraint=eastwest;rounded=0;shadow=0;html=0;" parent="zkfFHV4jXpPFQw0GAbJ--0" vertex="1">
          <mxGeometry y="220" width="300" height="26" as="geometry" />
        </mxCell>
        <mxCell id="928VX1cfAJ5bRDj-DPxS-22" style="edgeStyle=orthogonalEdgeStyle;rounded=0;orthogonalLoop=1;jettySize=auto;html=1;exitX=1;exitY=0.75;exitDx=0;exitDy=0;entryX=0;entryY=0.246;entryDx=0;entryDy=0;entryPerimeter=0;" edge="1" parent="WIyWlLk6GJQsqaUBKTNV-1" source="ddMBwT2aPCV6fHb5aI7i-36" target="928VX1cfAJ5bRDj-DPxS-16">
          <mxGeometry relative="1" as="geometry" />
        </mxCell>
        <mxCell id="928VX1cfAJ5bRDj-DPxS-27" style="edgeStyle=orthogonalEdgeStyle;rounded=0;orthogonalLoop=1;jettySize=auto;html=1;exitX=0.25;exitY=0;exitDx=0;exitDy=0;entryX=0.25;entryY=1;entryDx=0;entryDy=0;" edge="1" parent="WIyWlLk6GJQsqaUBKTNV-1" source="ddMBwT2aPCV6fHb5aI7i-36" target="ddMBwT2aPCV6fHb5aI7i-48">
          <mxGeometry relative="1" as="geometry" />
        </mxCell>
        <mxCell id="ddMBwT2aPCV6fHb5aI7i-36" value="index.ts" style="swimlane;fontStyle=2;align=center;verticalAlign=top;childLayout=stackLayout;horizontal=1;startSize=26;horizontalStack=0;resizeParent=1;resizeLast=0;collapsible=1;marginBottom=0;rounded=0;shadow=0;strokeWidth=1;fillColor=#f5f5f5;strokeColor=#666666;fontColor=#333333;" parent="WIyWlLk6GJQsqaUBKTNV-1" vertex="1">
          <mxGeometry x="90" y="160" width="300" height="440" as="geometry">
            <mxRectangle x="230" y="140" width="160" height="26" as="alternateBounds" />
          </mxGeometry>
        </mxCell>
        <mxCell id="928VX1cfAJ5bRDj-DPxS-18" value="&lt;div align=&quot;left&quot;&gt;gl: WebGLRenderingContext;&lt;br&gt;canvas: HTMLCanvasElement;&lt;br&gt;program: WebGLProgram;&lt;br&gt;modelUniformID: WebGLUniformLocation;&lt;br&gt;viewUniformID: WebGLUniformLocation;&lt;br&gt;projectionUniformID: WebGLUniformLocation;&lt;br&gt;lightToggleUniformID: WebGLUniformLocation;&lt;br&gt;positionAttributeID: GLint;&lt;br&gt;normalAttributeID: GLint;&lt;br&gt;let iter;&lt;br&gt;let Monkey;&lt;br&gt;let Cube;&lt;br&gt;let Axis;&lt;br&gt;let label;&lt;br&gt;let label2;&lt;br&gt;let AxisLabels: Text[];&lt;br&gt;let f: Font;&lt;/div&gt;" style="text;html=1;strokeColor=none;fillColor=none;align=left;verticalAlign=middle;whiteSpace=wrap;rounded=0;" vertex="1" parent="ddMBwT2aPCV6fHb5aI7i-36">
          <mxGeometry y="26" width="300" height="245" as="geometry" />
        </mxCell>
        <mxCell id="928VX1cfAJ5bRDj-DPxS-19" value="" style="line;html=1;strokeWidth=1;align=left;verticalAlign=middle;spacingTop=-1;spacingLeft=3;spacingRight=3;rotatable=1;labelPosition=right;points=[];portConstraint=eastwest;movable=1;resizable=1;deletable=1;editable=1;connectable=1;" vertex="1" parent="ddMBwT2aPCV6fHb5aI7i-36">
          <mxGeometry y="271" width="300" height="8" as="geometry" />
        </mxCell>
        <mxCell id="ddMBwT2aPCV6fHb5aI7i-51" value="async main()&#xa;" style="text;align=left;verticalAlign=top;spacingLeft=4;spacingRight=4;overflow=hidden;rotatable=0;points=[[0,0.5],[1,0.5]];portConstraint=eastwest;" parent="ddMBwT2aPCV6fHb5aI7i-36" vertex="1">
          <mxGeometry y="279" width="300" height="24" as="geometry" />
        </mxCell>
        <mxCell id="ddMBwT2aPCV6fHb5aI7i-52" value="render(timestamp)" style="text;align=left;verticalAlign=top;spacingLeft=4;spacingRight=4;overflow=hidden;rotatable=0;points=[[0,0.5],[1,0.5]];portConstraint=eastwest;" parent="ddMBwT2aPCV6fHb5aI7i-36" vertex="1">
          <mxGeometry y="303" width="300" height="24" as="geometry" />
        </mxCell>
        <mxCell id="ddMBwT2aPCV6fHb5aI7i-53" value="init()" style="text;align=left;verticalAlign=top;spacingLeft=4;spacingRight=4;overflow=hidden;rotatable=0;points=[[0,0.5],[1,0.5]];portConstraint=eastwest;" parent="ddMBwT2aPCV6fHb5aI7i-36" vertex="1">
          <mxGeometry y="327" width="300" height="24" as="geometry" />
        </mxCell>
        <mxCell id="ddMBwT2aPCV6fHb5aI7i-55" value="createShader()" style="text;align=left;verticalAlign=top;spacingLeft=4;spacingRight=4;overflow=hidden;rotatable=0;points=[[0,0.5],[1,0.5]];portConstraint=eastwest;" parent="ddMBwT2aPCV6fHb5aI7i-36" vertex="1">
          <mxGeometry y="351" width="300" height="24" as="geometry" />
        </mxCell>
        <mxCell id="ddMBwT2aPCV6fHb5aI7i-54" value="createProgram()" style="text;align=left;verticalAlign=top;spacingLeft=4;spacingRight=4;overflow=hidden;rotatable=0;points=[[0,0.5],[1,0.5]];portConstraint=eastwest;" parent="ddMBwT2aPCV6fHb5aI7i-36" vertex="1">
          <mxGeometry y="375" width="300" height="24" as="geometry" />
        </mxCell>
        <mxCell id="928VX1cfAJ5bRDj-DPxS-28" style="edgeStyle=orthogonalEdgeStyle;rounded=0;orthogonalLoop=1;jettySize=auto;html=1;exitX=0.75;exitY=1;exitDx=0;exitDy=0;entryX=0.75;entryY=0;entryDx=0;entryDy=0;" edge="1" parent="WIyWlLk6GJQsqaUBKTNV-1" source="ddMBwT2aPCV6fHb5aI7i-48" target="ddMBwT2aPCV6fHb5aI7i-36">
          <mxGeometry relative="1" as="geometry" />
        </mxCell>
        <mxCell id="ddMBwT2aPCV6fHb5aI7i-48" value="Loader.ts" style="swimlane;fontStyle=2;align=center;verticalAlign=top;childLayout=stackLayout;horizontal=1;startSize=26;horizontalStack=0;resizeParent=1;resizeLast=0;collapsible=1;marginBottom=0;rounded=0;shadow=0;strokeWidth=1;fillColor=#f5f5f5;strokeColor=#666666;fontColor=#333333;" parent="WIyWlLk6GJQsqaUBKTNV-1" vertex="1">
          <mxGeometry x="90" y="40" width="300" height="100" as="geometry">
            <mxRectangle x="230" y="140" width="160" height="26" as="alternateBounds" />
          </mxGeometry>
        </mxCell>
        <mxCell id="ddMBwT2aPCV6fHb5aI7i-49" value="public async LoadOBJ(model: string)" style="text;align=left;verticalAlign=top;spacingLeft=4;spacingRight=4;overflow=hidden;rotatable=0;points=[[0,0.5],[1,0.5]];portConstraint=eastwest;" parent="ddMBwT2aPCV6fHb5aI7i-48" vertex="1">
          <mxGeometry y="26" width="300" height="24" as="geometry" />
        </mxCell>
        <mxCell id="ddMBwT2aPCV6fHb5aI7i-50" value="public async ReadFile(model: string)" style="text;align=left;verticalAlign=top;spacingLeft=4;spacingRight=4;overflow=hidden;rotatable=0;points=[[0,0.5],[1,0.5]];portConstraint=eastwest;" parent="ddMBwT2aPCV6fHb5aI7i-48" vertex="1">
          <mxGeometry y="50" width="300" height="24" as="geometry" />
        </mxCell>
        <mxCell id="ddMBwT2aPCV6fHb5aI7i-64" value="" style="group" parent="WIyWlLk6GJQsqaUBKTNV-1" vertex="1" connectable="0">
          <mxGeometry x="-100" y="420" width="80" height="60" as="geometry" />
        </mxCell>
        <mxCell id="ddMBwT2aPCV6fHb5aI7i-60" value="" style="rounded=0;whiteSpace=wrap;html=1;fillColor=#f5f5f5;fontColor=#333333;strokeColor=#666666;" parent="ddMBwT2aPCV6fHb5aI7i-64" vertex="1">
          <mxGeometry y="5" width="20" height="20" as="geometry" />
        </mxCell>
        <mxCell id="ddMBwT2aPCV6fHb5aI7i-61" value="Scripts" style="text;html=1;strokeColor=none;fillColor=none;align=center;verticalAlign=middle;whiteSpace=wrap;rounded=0;" parent="ddMBwT2aPCV6fHb5aI7i-64" vertex="1">
          <mxGeometry x="20" width="60" height="30" as="geometry" />
        </mxCell>
        <mxCell id="ddMBwT2aPCV6fHb5aI7i-62" value="" style="rounded=0;whiteSpace=wrap;html=1;fillColor=#e1d5e7;strokeColor=#9673a6;" parent="ddMBwT2aPCV6fHb5aI7i-64" vertex="1">
          <mxGeometry y="35" width="20" height="20" as="geometry" />
        </mxCell>
        <mxCell id="ddMBwT2aPCV6fHb5aI7i-63" value="Class" style="text;html=1;strokeColor=none;fillColor=none;align=center;verticalAlign=middle;whiteSpace=wrap;rounded=0;" parent="ddMBwT2aPCV6fHb5aI7i-64" vertex="1">
          <mxGeometry x="20" y="30" width="60" height="30" as="geometry" />
        </mxCell>
        <mxCell id="928VX1cfAJ5bRDj-DPxS-24" style="edgeStyle=orthogonalEdgeStyle;rounded=0;orthogonalLoop=1;jettySize=auto;html=1;exitX=0.5;exitY=1;exitDx=0;exitDy=0;exitPerimeter=0;entryX=0.005;entryY=0.796;entryDx=0;entryDy=0;entryPerimeter=0;" edge="1" parent="WIyWlLk6GJQsqaUBKTNV-1" source="XHGTO3v_7g0mmYX1_w9D-0" target="928VX1cfAJ5bRDj-DPxS-18">
          <mxGeometry relative="1" as="geometry" />
        </mxCell>
        <mxCell id="XHGTO3v_7g0mmYX1_w9D-0" value="&lt;div&gt;vertex.glsl&lt;/div&gt;" style="shape=note;whiteSpace=wrap;html=1;backgroundOutline=1;darkOpacity=0.05;" parent="WIyWlLk6GJQsqaUBKTNV-1" vertex="1">
          <mxGeometry x="-170" y="185" width="80" height="100" as="geometry" />
        </mxCell>
        <mxCell id="928VX1cfAJ5bRDj-DPxS-25" style="edgeStyle=orthogonalEdgeStyle;rounded=0;orthogonalLoop=1;jettySize=auto;html=1;exitX=0;exitY=0;exitDx=80;exitDy=65;exitPerimeter=0;entryX=-0.004;entryY=0.669;entryDx=0;entryDy=0;entryPerimeter=0;" edge="1" parent="WIyWlLk6GJQsqaUBKTNV-1" source="XHGTO3v_7g0mmYX1_w9D-1" target="928VX1cfAJ5bRDj-DPxS-18">
          <mxGeometry relative="1" as="geometry">
            <mxPoint x="80" y="350" as="targetPoint" />
            <Array as="points">
              <mxPoint x="-80" y="125" />
              <mxPoint x="-80" y="350" />
            </Array>
          </mxGeometry>
        </mxCell>
        <mxCell id="XHGTO3v_7g0mmYX1_w9D-1" value="fragment.glsl" style="shape=note;whiteSpace=wrap;html=1;backgroundOutline=1;darkOpacity=0.05;" parent="WIyWlLk6GJQsqaUBKTNV-1" vertex="1">
          <mxGeometry x="-170" y="60" width="80" height="100" as="geometry" />
        </mxCell>
        <mxCell id="928VX1cfAJ5bRDj-DPxS-2" value="Text" style="swimlane;fontStyle=2;align=center;verticalAlign=top;childLayout=stackLayout;horizontal=1;startSize=26;horizontalStack=0;resizeParent=1;resizeLast=0;collapsible=1;marginBottom=0;rounded=0;shadow=0;strokeWidth=1;fillColor=#e1d5e7;strokeColor=#9673a6;" vertex="1" parent="WIyWlLk6GJQsqaUBKTNV-1">
          <mxGeometry x="420" y="447" width="350" height="152" as="geometry">
            <mxRectangle x="230" y="140" width="160" height="26" as="alternateBounds" />
          </mxGeometry>
        </mxCell>
        <mxCell id="928VX1cfAJ5bRDj-DPxS-16" value="&lt;div align=&quot;left&quot;&gt;ID: number;&lt;br&gt;parentDiv: HTMLDivElement;&lt;br&gt;canvasWidth: number;&lt;br&gt;canvasHeight: number;&lt;/div&gt;" style="text;html=1;align=left;verticalAlign=middle;resizable=0;points=[];autosize=1;strokeColor=none;fillColor=none;" vertex="1" parent="928VX1cfAJ5bRDj-DPxS-2">
          <mxGeometry y="26" width="350" height="70" as="geometry" />
        </mxCell>
        <mxCell id="928VX1cfAJ5bRDj-DPxS-17" value="" style="line;html=1;strokeWidth=1;align=left;verticalAlign=middle;spacingTop=-1;spacingLeft=3;spacingRight=3;rotatable=1;labelPosition=right;points=[];portConstraint=eastwest;movable=1;resizable=1;deletable=1;editable=1;connectable=1;" vertex="1" parent="928VX1cfAJ5bRDj-DPxS-2">
          <mxGeometry y="96" width="350" height="8" as="geometry" />
        </mxCell>
        <mxCell id="928VX1cfAJ5bRDj-DPxS-3" value="constructor(set_ID, set_canvasWidth, set_canvasHeight)" style="text;align=left;verticalAlign=top;spacingLeft=4;spacingRight=4;overflow=hidden;rotatable=0;points=[[0,0.5],[1,0.5]];portConstraint=eastwest;" vertex="1" parent="928VX1cfAJ5bRDj-DPxS-2">
          <mxGeometry y="104" width="350" height="24" as="geometry" />
        </mxCell>
        <mxCell id="928VX1cfAJ5bRDj-DPxS-4" value="render(position, model, view, projection, value) {" style="text;align=left;verticalAlign=top;spacingLeft=4;spacingRight=4;overflow=hidden;rotatable=0;points=[[0,0.5],[1,0.5]];portConstraint=eastwest;" vertex="1" parent="928VX1cfAJ5bRDj-DPxS-2">
          <mxGeometry y="128" width="350" height="24" as="geometry" />
        </mxCell>
        <mxCell id="928VX1cfAJ5bRDj-DPxS-6" value="index.html" style="shape=note;whiteSpace=wrap;html=1;backgroundOutline=1;darkOpacity=0.05;" vertex="1" parent="WIyWlLk6GJQsqaUBKTNV-1">
          <mxGeometry x="-50" y="185" width="80" height="100" as="geometry" />
        </mxCell>
        <mxCell id="928VX1cfAJ5bRDj-DPxS-11" value="style.css" style="shape=note;whiteSpace=wrap;html=1;backgroundOutline=1;darkOpacity=0.05;" vertex="1" parent="WIyWlLk6GJQsqaUBKTNV-1">
          <mxGeometry x="-50" y="60" width="80" height="100" as="geometry" />
        </mxCell>
        <mxCell id="928VX1cfAJ5bRDj-DPxS-12" value="" style="endArrow=classic;html=1;rounded=0;exitX=0.5;exitY=1;exitDx=0;exitDy=0;exitPerimeter=0;entryX=0.5;entryY=0;entryDx=0;entryDy=0;entryPerimeter=0;" edge="1" parent="WIyWlLk6GJQsqaUBKTNV-1" source="928VX1cfAJ5bRDj-DPxS-11" target="928VX1cfAJ5bRDj-DPxS-6">
          <mxGeometry width="50" height="50" relative="1" as="geometry">
            <mxPoint x="-120" y="230" as="sourcePoint" />
            <mxPoint x="-70" y="180" as="targetPoint" />
          </mxGeometry>
        </mxCell>
        <mxCell id="928VX1cfAJ5bRDj-DPxS-20" style="edgeStyle=orthogonalEdgeStyle;rounded=0;orthogonalLoop=1;jettySize=auto;html=1;exitX=0;exitY=0.75;exitDx=0;exitDy=0;" edge="1" parent="WIyWlLk6GJQsqaUBKTNV-1" source="928VX1cfAJ5bRDj-DPxS-18" target="928VX1cfAJ5bRDj-DPxS-6">
          <mxGeometry relative="1" as="geometry" />
        </mxCell>
        <mxCell id="928VX1cfAJ5bRDj-DPxS-23" style="edgeStyle=orthogonalEdgeStyle;rounded=0;orthogonalLoop=1;jettySize=auto;html=1;exitX=1;exitY=0.25;exitDx=0;exitDy=0;entryX=0;entryY=0.5;entryDx=0;entryDy=0;" edge="1" parent="WIyWlLk6GJQsqaUBKTNV-1" source="928VX1cfAJ5bRDj-DPxS-18" target="ddMBwT2aPCV6fHb5aI7i-6">
          <mxGeometry relative="1" as="geometry" />
        </mxCell>
      </root>
    </mxGraphModel>
  </diagram>
</mxfile>
